<?xml version="1.0" encoding="UTF-8" standalone="no"?>
<!-- Created with Inkscape (http://www.inkscape.org/) -->

<svg
   width="201.81445"
   height="249.04553"
   viewBox="0 0 201.81445 249.04553"
   version="1.1"
   id="svg1"
   xml:space="preserve"
   xmlns:inkscape="http://www.inkscape.org/namespaces/inkscape"
   xmlns:sodipodi="http://sodipodi.sourceforge.net/DTD/sodipodi-0.dtd"
   xmlns="http://www.w3.org/2000/svg"
   xmlns:svg="http://www.w3.org/2000/svg"><sodipodi:namedview
     id="namedview1"
     pagecolor="#ffffff"
     bordercolor="#000000"
     borderopacity="0.25"
     inkscape:showpageshadow="2"
     inkscape:pageopacity="0.0"
     inkscape:pagecheckerboard="0"
     inkscape:deskcolor="#d1d1d1"
     inkscape:document-units="px"><inkscape:page
       x="0"
       y="0"
       width="201.81445"
       height="249.04553"
       id="page2"
       margin="0"
       bleed="0" /></sodipodi:namedview><defs
     id="defs1"><inkscape:path-effect
       effect="fillet_chamfer"
       id="path-effect4"
       is_visible="true"
       lpeversion="1"
       nodesatellites_param="F,0,0,1,0,6.1333708,0,1 @ F,0,0,1,0,0,0,1 @ F,0,0,1,0,3.2206451,0,1 @ F,0,0,1,0,0,0,1 @ F,0,0,1,0,0,0,1 @ F,0,0,1,0,0,0,1 @ F,0,0,1,0,0,0,1 @ F,0,0,1,0,9.4626347,0,1 @ F,0,0,1,0,0,0,1 @ F,0,0,1,0,3.6196873,0,1 @ F,0,0,1,0,0,0,1 @ F,0,0,1,0,0,0,1 @ F,0,0,1,0,0,0,1 @ F,0,0,1,0,0,0,1 @ F,0,0,1,0,6.4748887,0,1 @ F,0,0,1,0,0,0,1 | F,0,0,1,0,1.3750419,0,1 @ F,0,0,1,0,0,0,1 @ F,0,0,1,0,0,0,1 @ F,0,0,1,0,0,0,1 @ F,0,0,1,0,7.181894,0,1 @ F,0,0,1,0,0,0,1 @ F,0,0,1,0,3.9567621,0,1 @ F,0,0,1,0,0,0,1 @ F,0,0,1,0,4.1409188,0,1 @ F,0,0,1,0,7.0374542,0,1 @ F,0,0,1,0,0,0,1 @ F,0,0,1,0,4.1158275,0,1 @ F,0,0,1,0,0,0,1 @ F,0,0,1,0,1.8366796,0,1 @ F,0,0,1,0,0,0,1 | F,0,0,1,0,1.7968371,0,1 @ F,0,0,1,0,1.3775212,0,1 @ F,0,0,1,0,0,0,1 @ F,0,0,1,0,2.7441108,0,1 @ F,0,0,1,0,0,0,1 | F,0,0,1,0,0,0,1 @ F,0,0,1,0,0,0,1 @ F,0,0,1,0,0,0,1 @ F,0,0,1,0,0,0,1 @ F,0,0,1,0,0,0,1 @ F,0,0,1,0,0,0,1 @ F,0,0,1,0,0,0,1"
       radius="0"
       unit="px"
       method="auto"
       mode="F"
       chamfer_steps="1"
       flexible="false"
       use_knot_distance="true"
       apply_no_radius="true"
       apply_with_radius="true"
       only_selected="false"
       hide_knots="false" /></defs><g
     inkscape:label="Layer 1"
     inkscape:groupmode="layer"
     id="layer1"
     transform="translate(-771.82618,-594.99836)"><path
       id="path1"
       style="fill:#d44739;fill-opacity:1"
       d="m 898.91161,594.99851 -58.04052,0.26321 -60.95517,0.27827 a 7.8258009,7.8258009 157.36922 0 0 -5.49795,2.29204 l 0,0 c -2.26165,2.26089 -2.27903,2.49399 -2.58008,34.47266 -0.004,0.37708 -0.008,0.75154 -0.0117,1.12109 0.10671,0.37272 0.16406,0.76591 0.16406,1.17383 v 199.98464 a 9.4596279,9.4596279 44.990895 0 0 9.46263,9.45962 l 76.43776,-0.0243 104.63031,-0.0359 a 10.140865,10.140865 160.33681 0 0 6.42048,-2.29421 c 3.83735,-3.14037 4.59025,-8.99385 4.67187,-41.50781 V 683.08789 c 0,-0.16309 0.01,-0.32228 0.0273,-0.48047 v -12.58956 a 15.62799,15.62799 67.495109 0 0 -4.57922,-11.05255 l -29.71765,-29.7075 -29.96112,-29.9509 a 14.716356,14.716356 22.365199 0 0 -10.471,-4.3084 z m -3.26479,9.31207 0.0876,19.43551 c 0.0516,11.44519 0.39044,25.00936 0.75195,30.14258 0.62817,8.91989 0.80185,9.46226 3.92187,12.25 a 15.207119,15.207119 15.597778 0 0 10.44557,2.91602 h 23.24389 c 13.50897,0 22.51039,0.15127 27.21173,0.46042 2.16134,0.14212 4.00007,2.37678 4.03565,4.55976 0.17575,10.78248 0.0901,42.34125 -0.24155,79.00911 l -0.70281,77.74988 a 4.7111369,4.7111369 131.8322 0 1 -4.14876,4.63489 c -2e-5,0 -3.14804,0.13544 -7.0336,0.20978 -14.19384,0.27153 -47.90708,0.62176 -85.86679,0.87225 l -84.67137,0.55878 a 4.0650631,4.0650631 44.977419 0 1 -4.09182,-4.0886 l 0.65186,-112.17526 c 0.33164,-57.11769 0.76811,-105.14091 1.03216,-114.95787 0.0273,-1.01319 0.90396,-1.92447 1.9158,-1.96369 6.4609,-0.25047 29.25553,-0.53373 56.03447,-0.67805 l 56.04293,-0.3031 a 1.3738035,1.3738035 44.715937 0 1 1.38122,1.36759 z m 11.22527,4.88922 c 7.42362,6.91356 42.15655,43.01566 47.94859,49.8586 0.48948,0.57829 0.24312,1.31711 -0.49965,1.39741 -3.26745,0.35321 -12.26698,0.59888 -23.2058,0.59888 h -21.77932 a 3.9813295,3.9813295 34.576353 0 1 -3.72068,-2.56446 c -1.06143,-2.79178 -1.2707,-40.17087 -0.47798,-48.70778 0.0901,-0.9704 1.01133,-1.25645 1.73484,-0.58265 z m -63.70803,61.97989 c -3.12604,-0.14514 -5.44384,2.15609 -6.04297,6.27343 -0.32827,2.25606 -0.45835,24.17064 -0.28906,48.69922 0.24837,35.98595 0.57421,44.91653 1.68164,46.25 3.2766,3.94537 6.61478,2.4026 39.31055,-18.16406 49.04284,-30.84949 48.16298,-30.07836 41.63867,-36.51562 -3.34716,-3.3025 -68.99999,-44.14213 -74.01758,-46.04297 -0.79649,-0.30174 -1.55985,-0.46651 -2.28125,-0.5 z"
       inkscape:path-effect="#path-effect4"
       inkscape:original-d="m 905.04492,594.9707 -64.17383,0.29102 -64.17578,0.29297 -2.27734,2.27734 c -2.26165,2.26089 -2.27903,2.49399 -2.58008,34.47266 -0.004,0.37708 -0.008,0.75154 -0.0117,1.12109 0.10671,0.37272 0.16406,0.76591 0.16406,1.17383 v 209.44727 l 85.90039,-0.0273 108.25,-0.0371 2.80079,-2.29297 c 3.83735,-3.14037 4.59025,-8.99385 4.67187,-41.50781 V 683.08789 c 0,-0.16309 0.01,-0.32228 0.0273,-0.48047 v -19.06445 l -34.29687,-34.28516 z m -9.4043,7.96485 0.0938,20.81054 c 0.0516,11.44519 0.39044,25.00936 0.75195,30.14258 0.62817,8.91989 0.80185,9.46226 3.92187,12.25 l 3.26368,2.91602 h 30.42578 c 20.52061,0 30.64017,0.34906 31.08593,1.07031 0.36351,0.58816 0.32722,37.9194 -0.0801,82.95898 l -0.74024,81.89063 -4.11133,0.49414 c -2.26125,0.27247 -44.06694,0.75979 -92.90039,1.08203 l -88.78711,0.58594 0.67578,-116.29102 c 0.37137,-63.95994 0.87418,-116.51601 1.11915,-116.79101 0.24496,-0.275 26.28367,-0.63841 57.86328,-0.8086 z m 9.85547,5.11914 c 1.12362,0 50.14453,50.93599 50.14453,52.10351 10e-6,0.50507 -10.71776,0.89649 -24.52539,0.89649 H 906.5918 l -0.97657,-2.56446 c -1.19893,-3.15343 -1.31062,-50.43554 -0.11914,-50.43554 z m -62.33203,63.125 c -3.12604,-0.14514 -5.44384,2.15609 -6.04297,6.27343 -0.32827,2.25606 -0.45835,24.17064 -0.28906,48.69922 0.24837,35.98595 0.57421,44.91653 1.68164,46.25 3.2766,3.94537 6.61478,2.4026 39.31055,-18.16406 49.04284,-30.84949 48.16298,-30.07836 41.63867,-36.51562 -3.34716,-3.3025 -68.99999,-44.14213 -74.01758,-46.04297 -0.79649,-0.30174 -1.55985,-0.46651 -2.28125,-0.5 z" /></g></svg>
