<svg xmlns="http://www.w3.org/2000/svg" width="452.954" height="433.035" viewBox="0 0 452.954 433.035"><path d="M258.684 290.344v-25.625l46.75-47.102c77.253-77.84 86.355-89.492 87.972-112.605 1.692-24.211-13.152-40.828-37.344-41.809-24.332-.984-39.464 10.504-43.484 33.016-.933 5.21-1.574 6.746-2.644 6.336-.778-.301-13.145-.543-27.48-.543h-26.067l.605-7.75c3.586-45.762 37.043-80.492 83.121-86.293 72.43-9.117 126.532 54.554 104.551 123.043-9.523 29.668-23.254 47.062-79.02 100.097l-34.066 32.403 6.8.625c3.743.343 30.977.683 60.52.75l53.715.125.285 24.097c.157 13.254-.023 24.286-.402 24.52-.375.23-24.226.64-53 .906-28.773.266-72.226.695-96.562.957l-44.25.473Zm-240.668-9.582c.359-18.836.656-88.25.66-154.25l.008-120 61.75.168c33.96.093 65.351.406 69.75.695 42.472 2.79 76.316 31.793 84.703 72.586 9.394 45.68-10.485 90.473-48.703 109.754-3.852 1.941-7.168 3.683-7.375 3.87s4.586 9.7 10.648 21.134a7785 7785 0 0 1 23.246 44.293 36380 36380 0 0 0 20.176 38.722l7.95 15.22-30.118.28-30.117.278-7.824-15c-4.301-8.25-16.254-31.2-26.555-51s-19.828-37.914-21.172-40.25l-2.445-4.25H77.684v112h-60.32Zm131.668-131.196c41.543-13.41 40.921-74.921-.88-86.77-5.597-1.589-11.605-1.972-38.87-2.487l-32.25-.61v92.496l33.25-.425c28.32-.364 34.062-.692 38.75-2.204m0 0"/><path fill="#fff" d="M241.32 283.832v-25.625l46.75-47.102c77.25-77.84 86.356-89.492 87.973-112.605 1.691-24.207-13.152-40.828-37.344-41.809-24.332-.984-39.465 10.504-43.488 33.016-.93 5.211-1.57 6.746-2.64 6.336-.778-.3-13.145-.543-27.481-.543h-26.067l.606-7.75c3.586-45.762 37.039-80.492 83.121-86.293C395.18-7.66 449.281 56.012 427.3 124.5c-9.523 29.668-23.253 47.063-79.019 100.098L314.215 257l6.8.625c3.743.344 30.977.684 60.52.75l53.715.125.285 24.098c.156 13.254-.023 24.285-.402 24.52-.38.23-24.227.64-53 .905-28.774.266-72.227.696-96.563.957l-44.25.473ZM.652 274.25c.36-18.836.657-88.25.66-154.25L1.32 0l61.75.168c33.961.094 65.348.406 69.75.695 42.473 2.79 76.317 31.793 84.703 72.586 9.391 45.68-10.484 90.473-48.703 109.754-3.851 1.942-7.168 3.684-7.375 3.871-.207.188 4.586 9.7 10.649 21.133A7785 7785 0 0 1 195.34 252.5c6.722 12.926 15.8 30.348 20.176 38.723l7.949 15.218-30.117.282-30.118.277-7.824-15c-4.304-8.25-16.254-31.2-26.554-51-10.301-19.8-19.832-37.914-21.172-40.25l-2.446-4.25H60.32v112H0ZM132.32 143.055c41.543-13.41 40.922-74.922-.879-86.77-5.597-1.59-11.609-1.972-38.87-2.488l-32.25-.606v92.493l33.25-.426c28.32-.363 34.062-.692 38.75-2.203m0 0"/><path d="m74.367 354.129-32.625 41.738L9.13 354.13H3.99v78.558h15.784V391.54l19.399 24.316h5.152l19.399-24.316v41.149h15.785v-78.56Zm27.535 78.558h53.313v-14.261h-37.531v-19.52h26.53v-13.449h-26.53v-15.664h36.113v-14.262h-51.895Zm71.606 0h25.246c24.434.356 42.43-16.476 42.09-38.812.34-22.797-17.656-38.578-42.09-38.344h-25.246Zm15.781-14.261v-48.633h9.348c15.781 0 25.953 9.125 25.953 24.082 0 14.852-10.41 24.55-25.953 24.55Zm69.508 14.262h15.785V355.53h-15.785Zm87.844 0h16.949l-34.367-78.56h-5.258l-34.488 78.56h16.949l4.324-10.055h31.566Zm-9.817-23.032h-20.582l10.293-26.074ZM-4.898 338.23"/><path fill="#fff" d="M71.016 348.52 38.39 390.258 5.777 348.52H.637v78.558h15.785V385.93l19.398 24.316h5.153L60.37 385.93v41.148h15.785V348.52Zm27.535 78.558h53.312v-14.262h-37.527v-19.52h26.527v-13.448h-26.527v-15.664h36.11v-14.262H98.55Zm71.605 0h25.246c24.434.352 42.43-16.476 42.09-38.816.34-22.793-17.656-38.578-42.09-38.34h-25.246Zm15.781-14.262v-48.632h9.348c15.781 0 25.953 9.125 25.953 24.078 0 14.855-10.406 24.554-25.953 24.554Zm69.493 14.262h15.785v-77.156H255.43Zm87.86 0h16.948l-34.367-78.558h-5.258l-34.488 78.558h16.95l4.323-10.055h31.567Zm-9.817-23.031H312.89l10.293-26.074ZM-8.25 332.617"/><path d="M451.453 390.332c0 23.473-19.027 42.496-42.496 42.496s-42.496-19.023-42.496-42.496c0-23.469 19.027-42.492 42.496-42.492s42.496 19.023 42.496 42.492m0 0"/><path fill="#fff" d="M448.77 384.332c0 23.473-19.024 42.496-42.497 42.496-23.468 0-42.492-19.023-42.492-42.496 0-23.469 19.024-42.496 42.492-42.496 23.473 0 42.497 19.027 42.497 42.496m0 0"/></svg>