<?xml version="1.0" encoding="UTF-8" standalone="no"?>
<!-- Created with Inkscape (http://www.inkscape.org/) -->

<svg
   width="45.228191mm"
   height="32.109154mm"
   viewBox="0 0 45.228191 32.109154"
   version="1.1"
   id="svg1"
   inkscape:version="1.4.2 (ebf0e940, 2025-05-08)"
   sodipodi:docname="r2logo.svg"
   xmlns:inkscape="http://www.inkscape.org/namespaces/inkscape"
   xmlns:sodipodi="http://sodipodi.sourceforge.net/DTD/sodipodi-0.dtd"
   xmlns="http://www.w3.org/2000/svg"
   xmlns:svg="http://www.w3.org/2000/svg">
  <sodipodi:namedview
     id="namedview1"
     pagecolor="#ffffff"
     bordercolor="#000000"
     borderopacity="0.25"
     inkscape:showpageshadow="2"
     inkscape:pageopacity="0.0"
     inkscape:pagecheckerboard="0"
     inkscape:deskcolor="#d1d1d1"
     inkscape:document-units="mm"
     inkscape:zoom="1.7496588"
     inkscape:cx="440.65736"
     inkscape:cy="494.38212"
     inkscape:window-width="1312"
     inkscape:window-height="723"
     inkscape:window-x="0"
     inkscape:window-y="25"
     inkscape:window-maximized="0"
     inkscape:current-layer="g6"
     showguides="true">
    <inkscape:page
       x="0"
       y="0"
       width="45.228191"
       height="32.109154"
       id="page2"
       margin="0"
       bleed="0" />
  </sodipodi:namedview>
  <defs
     id="defs1">
    <inkscape:path-effect
       effect="fillet_chamfer"
       id="path-effect3"
       is_visible="true"
       lpeversion="1"
       nodesatellites_param="F,0,0,1,0,1.8982146,0,1 @ F,0,0,1,0,0,0,1 @ F,0,0,1,0,1.7766196,0,1 @ F,0,0,1,0,0,0,1 @ F,0,0,1,0,1.7828345,0,1 @ F,0,0,1,0,0,0,1"
       radius="0"
       unit="px"
       method="auto"
       mode="F"
       chamfer_steps="1"
       flexible="false"
       use_knot_distance="true"
       apply_no_radius="true"
       apply_with_radius="true"
       only_selected="false"
       hide_knots="false" />
  </defs>
  <g
     inkscape:label="Layer 1"
     inkscape:groupmode="layer"
     id="layer1"
     transform="translate(-80.41886,-121.16108)">
    <g
       id="g5">
      <path
         id="path1"
         style="display:inline;fill:#e6372e;fill-opacity:1;stroke-width:0.598518;paint-order:stroke markers fill"
         d="m 96.309367,123.14804 a 15.219844,15.219844 0 0 0 -1.90221,0.52555 c 0.665142,0.89501 0.997872,2.02156 0.997872,3.38015 0,1.13454 -0.254227,2.12525 -0.762227,2.97192 -0.491067,0.82973 -1.210775,1.47343 -2.159041,1.93063 -0.29463,0.13928 -0.611122,0.25618 -0.949813,0.3514 0.301678,0.0886 0.584617,0.21704 0.848527,0.38499 0.5588,0.33866 1.02428,0.86338 1.396814,1.57458 l 1.270206,2.28616 c 0.270934,0.49107 0.397789,0.97384 0.380856,1.44798 -0.01693,0.4572 -0.203022,0.83828 -0.558622,1.14308 -0.338667,0.28787 -0.838217,0.4315 -1.498617,0.4315 -0.6604,0 -1.202407,-0.13525 -1.625741,-0.40618 -0.4064,-0.27093 -0.770706,-0.69447 -1.092439,-1.27021 l -2.311487,-4.2416 c -0.2032,-0.37253 -0.465299,-0.62676 -0.787032,-0.76223 -0.3048,-0.1524 -0.660719,-0.22841 -1.067119,-0.22841 h -1.323433 a 15.219844,15.219844 0 0 0 -0.07338,0.19793 v 4.34857 c 0,0.74506 -0.194477,1.32953 -0.583943,1.75286 -0.08492,0.0886 -0.179234,0.16739 -0.28267,0.23668 a 15.219844,15.219844 0 0 0 15.175818,14.06684 15.219844,15.219844 0 0 0 15.220254,-15.21974 15.219844,15.219844 0 0 0 -6.15259,-12.22406 c 0.0144,0.18348 0.0217,0.37247 0.0217,0.56689 0,0.7112 -0.11008,1.40574 -0.33021,2.08308 -0.2032,0.67733 -0.54183,1.35458 -1.01596,2.03191 -0.4572,0.67734 -1.07522,1.39704 -1.85415,2.15904 l -2.93212,2.89543 h 5.09116 c 0.62654,0 1.10092,0.16093 1.42265,0.48266 0.33867,0.32174 0.50798,0.78722 0.50798,1.39682 0,0.6096 -0.16931,1.08398 -0.50798,1.42265 -0.32173,0.32173 -0.79611,0.48266 -1.42265,0.48266 h -8.839251 c -0.745066,0 -1.287074,-0.16932 -1.62574,-0.50798 -0.321734,-0.3556 -0.482658,-0.87193 -0.482658,-1.54926 0,-0.47414 0.101691,-0.89768 0.304891,-1.27021 0.220133,-0.37253 0.499525,-0.73684 0.838192,-1.09244 l 4.445206,-4.64778 c 0.6604,-0.7112 1.12588,-1.32083 1.39681,-1.82883 0.28787,-0.508 0.43202,-1.01645 0.43202,-1.52445 0,-0.64347 -0.21177,-1.12572 -0.63511,-1.44746 -0.42333,-0.32173 -1.03296,-0.48266 -1.82882,-0.48266 -0.4064,0 -0.83833,0.0592 -1.29553,0.17777 -0.457205,0.1016 -0.947846,0.28769 -1.472779,0.55862 -0.4572,0.2032 -0.872352,0.26244 -1.244886,0.17777 -0.3556,-0.0847 -0.660156,-0.27075 -0.914156,-0.55862 -0.237066,-0.28787 -0.389603,-0.61811 -0.457336,-0.99064 -0.0508,-0.37253 0.0084,-0.73632 0.177767,-1.09192 0.01875,-0.0413 0.03891,-0.0819 0.06098,-0.12144 z m -5.867859,2.59984 a 15.219844,15.219844 0 0 0 -3.538285,3.61735 h 1.288293 c 0.897467,0 1.583106,-0.1777 2.057239,-0.5333 0.474133,-0.3556 0.711068,-0.906 0.711068,-1.65106 0,-0.60731 -0.172591,-1.08498 -0.518315,-1.43299 z M 90.3118,142.20217 c 0.150016,0 0.267744,0.0299 0.353467,0.0899 0.09001,0.0557 0.171565,0.15032 0.244429,0.28319 l 1.26969,2.27944 1.263489,-2.27944 c 0.07715,-0.13287 0.158706,-0.22747 0.24443,-0.28319 0.09001,-0.06 0.209652,-0.0899 0.359668,-0.0899 0.171446,0 0.302214,0.0473 0.392224,0.1416 0.0943,0.09 0.141593,0.22269 0.141593,0.39842 v 3.56826 c 0,0.17145 -0.04487,0.30413 -0.134875,0.39842 -0.09001,0.0943 -0.22321,0.1416 -0.398942,0.1416 -0.171447,0 -0.30413,-0.0473 -0.398426,-0.1416 -0.09001,-0.0943 -0.134875,-0.22697 -0.134875,-0.39842 v -1.97714 l -0.900204,1.56579 c -0.06001,0.0943 -0.124174,0.16473 -0.192753,0.21188 -0.06429,0.0471 -0.152109,0.0708 -0.263549,0.0708 -0.107155,0 -0.194972,-0.0236 -0.26355,-0.0708 -0.06858,-0.0472 -0.130832,-0.11758 -0.186552,-0.21188 l -0.894002,-1.55029 v 1.96164 c 0,0.17145 -0.04487,0.30413 -0.134876,0.39842 -0.09001,0.0943 -0.222692,0.1416 -0.398425,0.1416 -0.171447,0 -0.304647,-0.0473 -0.398942,-0.1416 -0.09001,-0.0943 -0.134876,-0.22697 -0.134876,-0.39842 v -3.56826 c 0,-0.17573 0.04921,-0.30841 0.147795,-0.39842 0.09858,-0.0943 0.238043,-0.1416 0.418062,-0.1416 z m 13.35112,0 c 0.19288,0 0.3386,0.0516 0.43719,0.15452 0.10286,0.10286 0.15451,0.25293 0.15451,0.4501 v 3.43958 c 0,0.19288 -0.0492,0.34295 -0.1478,0.4501 -0.0986,0.10287 -0.24673,0.154 -0.4439,0.154 -0.18859,0 -0.33431,-0.0511 -0.43718,-0.154 -0.10287,-0.10715 -0.15451,-0.25722 -0.15451,-0.4501 v -3.43958 c 0,-0.19717 0.0516,-0.34724 0.15451,-0.4501 0.10287,-0.10287 0.24859,-0.15452 0.43718,-0.15452 z m 3.01016,0 c 0.14573,0 0.27215,0.0386 0.3793,0.11576 0.11144,0.0772 0.20795,0.19922 0.28939,0.36638 l 1.60093,3.44631 c 0.0686,0.13715 0.0922,0.26114 0.0708,0.37258 -0.0171,0.11144 -0.0707,0.19734 -0.16071,0.25735 -0.0857,0.06 -0.19285,0.0899 -0.32143,0.0899 -0.17145,0 -0.30465,-0.0386 -0.39894,-0.11576 -0.09,-0.0772 -0.17105,-0.20114 -0.24391,-0.37258 l -0.20774,-0.48886 h -2.02159 l -0.20774,0.48886 c -0.0772,0.17144 -0.15627,0.29543 -0.23771,0.37258 -0.0814,0.0771 -0.20594,0.11576 -0.3731,0.11576 -0.13287,0 -0.24434,-0.0299 -0.33435,-0.0899 -0.09,-0.0643 -0.14548,-0.15019 -0.16691,-0.25735 -0.0214,-0.11144 -0.002,-0.23543 0.0579,-0.37258 l 1.60093,-3.44631 c 0.0771,-0.16716 0.17123,-0.28923 0.28267,-0.36638 0.11573,-0.0771 0.2465,-0.11576 0.39223,-0.11576 z m -11.0877,0.0579 h 2.179195 c 0.154302,0 0.270115,0.0386 0.347266,0.11576 0.07715,0.0771 0.115755,0.18861 0.115755,0.33434 0,0.15002 -0.0386,0.26583 -0.115755,0.34727 -0.07715,0.0771 -0.192964,0.11575 -0.347266,0.11575 h -1.665014 v 0.86145 h 1.523421 c 0.150016,0 0.263913,0.0386 0.341064,0.11575 0.08144,0.0772 0.121957,0.19054 0.121957,0.34055 0,0.15002 -0.04052,0.26392 -0.121957,0.34107 -0.07715,0.0772 -0.191048,0.11575 -0.341064,0.11575 H 96.099561 V 145.88 h 1.665014 c 0.154302,0 0.270115,0.0405 0.347266,0.12196 0.07715,0.0772 0.115755,0.18862 0.115755,0.33435 0,0.15001 -0.0386,0.26339 -0.115755,0.34055 -0.07715,0.0771 -0.192964,0.11575 -0.347266,0.11575 H 95.58538 c -0.20145,0 -0.355867,-0.0511 -0.463021,-0.154 -0.102868,-0.10715 -0.154512,-0.25965 -0.154512,-0.45682 v -3.3109 c 0,-0.19717 0.05164,-0.34724 0.154512,-0.45011 0.107154,-0.10715 0.261571,-0.16071 0.463021,-0.16071 z m 3.498495,0 h 1.260385 c 0.78866,0 1.39711,0.19737 1.82573,0.5917 0.4329,0.39432 0.64957,0.95114 0.64957,1.67121 0,0.36004 -0.056,0.68191 -0.16743,0.9648 -0.11144,0.2786 -0.27212,0.51649 -0.48214,0.71365 -0.21002,0.19288 -0.46913,0.34052 -0.77773,0.44339 -0.30432,0.0986 -0.65367,0.14779 -1.048,0.14779 h -1.260385 c -0.20145,0 -0.355867,-0.0511 -0.463021,-0.154 -0.102868,-0.10715 -0.153996,-0.25965 -0.153996,-0.45682 v -3.3109 c 0,-0.19717 0.05113,-0.34724 0.153996,-0.45011 0.107154,-0.10715 0.261571,-0.16071 0.463021,-0.16071 z m 0.565856,0.95808 v 2.61638 h 0.617019 c 0.22716,0 0.42262,-0.0275 0.58549,-0.0832 0.16716,-0.0557 0.30419,-0.13728 0.41135,-0.24443 0.11144,-0.10715 0.19299,-0.24227 0.24443,-0.40514 0.0557,-0.16288 0.0832,-0.3559 0.0832,-0.57878 0,-0.44576 -0.10904,-0.77338 -0.32763,-0.9834 -0.2186,-0.21431 -0.55108,-0.32143 -0.99684,-0.32143 z m 7.010429,0.27647 -0.6165,1.47226 h 1.2516 l -0.62218,-1.47226 z" />
      <path
         id="text1-9"
         style="font-weight:900;font-size:25.4px;line-height:1.5;font-family:Nunito;-inkscape-font-specification:'Nunito Heavy';text-align:center;letter-spacing:-1.77271px;text-anchor:middle;display:inline;fill:#e6372e;stroke-width:0.635;paint-order:stroke markers fill"
         d="m 102.11573,121.16108 c -0.84667,0 -1.69323,0.0933 -2.539896,0.27957 -0.829733,0.18627 -1.634356,0.49082 -2.413289,0.91416 -0.391519,0.21081 -0.675917,0.47528 -0.853178,0.79323 a 15.219844,15.219844 0 0 1 3.092318,-0.31729 15.219844,15.219844 0 0 1 9.067665,2.99568 c -0.0697,-0.88722 -0.30777,-1.64648 -0.71469,-2.2779 -0.49106,-0.77893 -1.21077,-1.37127 -2.15904,-1.77767 -0.93133,-0.4064 -2.09136,-0.60978 -3.47989,-0.60978 z m -19.334736,0.27957 c -0.745067,0 -1.329015,0.20286 -1.752348,0.60926 -0.4064,0.4064 -0.609782,0.99087 -0.609782,1.75287 v 13.41107 c 0,0.74506 0.203382,1.32953 0.609782,1.75286 0.4064,0.4064 0.98196,0.60927 1.727026,0.60927 0.609093,0 1.099244,-0.12409 1.470195,-0.37259 a 15.219844,15.219844 0 0 1 -0.04392,-1.1529 15.219844,15.219844 0 0 1 0.910538,-5.18521 v -0.19793 h 0.07338 a 15.219844,15.219844 0 0 1 1.737362,-3.30212 H 85.09248 v -4.3434 h 3.099036 c 0.897467,0 1.583106,0.18609 2.057239,0.55862 0.06926,0.052 0.133607,0.10789 0.192753,0.16743 a 15.219844,15.219844 0 0 1 3.965649,-2.07429 c -0.197043,-0.26514 -0.423096,-0.50987 -0.678511,-0.73432 -1.100667,-0.99907 -2.666938,-1.49862 -4.698938,-1.49862 z" />
    </g>
    <g
       id="g6"
       transform="translate(0,0.07557024)">
      <path
         sodipodi:type="star"
         style="fill:#e6372e;fill-opacity:1;stroke-width:0.635;paint-order:stroke markers fill"
         id="path3"
         inkscape:flatsided="false"
         sodipodi:sides="3"
         sodipodi:cx="118.50506"
         sodipodi:cy="143.86375"
         sodipodi:r1="7.124227"
         sodipodi:r2="3.5621135"
         sodipodi:arg1="2.0943951"
         sodipodi:arg2="3.1415927"
         inkscape:rounded="0"
         inkscape:randomized="0"
         d="m 114.94294,148.1353 0,-4.27155 0,-4.39314 a 1.0257318,1.0257318 150 0 1 1.5386,-0.88831 l 3.80458,2.19657 3.79919,2.19347 a 1.02932,1.02932 90 0 1 0,1.78283 l -3.7992,2.19347 -3.69926,2.13577 a 1.0959347,1.0959347 30 0 1 -1.64391,-0.94911 z"
         inkscape:transform-center-x="-1.3863692"
         transform="matrix(0.77839676,0,0,0.80808596,28.608193,22.787133)"
         inkscape:path-effect="#path-effect3" />
      <g
         id="g4"
         transform="translate(-0.08433005,11.668573)">
        <rect
           style="fill:#e6372e;fill-opacity:1;stroke-width:0.600474;paint-order:stroke markers fill"
           id="rect3"
           width="3.004658"
           height="6.6184049"
           x="118.11308"
           y="134.71001"
           ry="1.1200378" />
        <rect
           style="fill:#e6372e;fill-opacity:1;stroke-width:0.600474;paint-order:stroke markers fill"
           id="rect3-6"
           width="3.004658"
           height="6.6184049"
           x="122.72673"
           y="134.71001"
           ry="1.1200378" />
      </g>
    </g>
  </g>
</svg>
