<?xml version="1.0" encoding="UTF-8" standalone="no"?>
<!-- Created with Inkscape (http://www.inkscape.org/) -->

<svg
   width="115.24997mm"
   height="113.08833mm"
   viewBox="0 0 115.24997 113.08833"
   version="1.1"
   id="svg1"
   xml:space="preserve"
   inkscape:export-filename="logo.svg"
   inkscape:export-xdpi="96"
   inkscape:export-ydpi="96"
   xmlns:inkscape="http://www.inkscape.org/namespaces/inkscape"
   xmlns:sodipodi="http://sodipodi.sourceforge.net/DTD/sodipodi-0.dtd"
   xmlns="http://www.w3.org/2000/svg"
   xmlns:svg="http://www.w3.org/2000/svg"><sodipodi:namedview
     id="namedview1"
     pagecolor="#ffffff"
     bordercolor="#000000"
     borderopacity="0.25"
     inkscape:showpageshadow="2"
     inkscape:pageopacity="0.0"
     inkscape:pagecheckerboard="0"
     inkscape:deskcolor="#d1d1d1"
     inkscape:document-units="mm"
     showguides="true"><sodipodi:guide
       position="88.52733,-1.3448537"
       orientation="0,-1"
       id="guide2"
       inkscape:locked="false" /><sodipodi:guide
       position="90.64813,4.0171763"
       orientation="1,0"
       id="guide3"
       inkscape:locked="false" /><sodipodi:guide
       position="91.44844,2.8167263"
       orientation="1,0"
       id="guide4"
       inkscape:locked="false" /><sodipodi:guide
       position="92.52885,3.7770863"
       orientation="1,0"
       id="guide5"
       inkscape:locked="false" /><sodipodi:guide
       position="114.8261,52.087417"
       orientation="1,0"
       id="guide6"
       inkscape:locked="false" /><sodipodi:guide
       position="104.29307,0.0934063"
       orientation="0,-1"
       id="guide7"
       inkscape:locked="false" /><sodipodi:guide
       position="0.040851172,-5.8010738"
       orientation="1,0"
       id="guide8"
       inkscape:locked="false" /><inkscape:page
       x="-6.8661771e-14"
       y="0"
       width="115.24998"
       height="113.08833"
       id="page2"
       margin="0"
       bleed="0" /></sodipodi:namedview><defs
     id="defs1" /><g
     inkscape:label="Layer 1"
     inkscape:groupmode="layer"
     id="layer1"
     transform="translate(-56.807691,-66.635363)"><path
       style="display:inline;fill:#e6372e;fill-opacity:1"
       d="m 120.65657,141.73214 v -6.77928 l 12.36927,-12.46292 c 20.44001,-20.59476 22.84866,-23.677782 23.27627,-29.793132 0.44789,-6.40526 -3.47994,-10.8026 -9.88053,-11.06161 -6.43724,-0.2605 -10.44128,2.77934 -11.50562,8.735 -0.24634,1.37842 -0.41602,1.78516 -0.69937,1.67642 -0.20577,-0.079 -3.47766,-0.14356 -7.27087,-0.14356 h -6.89675 l 0.16066,-2.05052 c 0.9486,-12.10738 9.80025,-21.296941 21.99201,-22.831521 19.16395,-2.412177 33.4783,14.433991 27.66227,32.554961 -2.51946,7.849872 -6.15246,12.452152 -20.90659,26.484392 l -9.01393,8.5729 1.79982,0.16558 c 0.9899,0.0911 8.19531,0.18036 16.01201,0.19843 l 14.21219,0.0329 0.0753,6.37555 c 0.0414,3.50656 -0.006,6.42588 -0.10611,6.48739 -0.0998,0.0615 -6.41009,0.16952 -14.02291,0.24002 -7.61283,0.0705 -19.11002,0.18447 -25.54932,0.25325 l -11.70781,0.12506 z m -63.676293,-2.5348 c 0.0951,-4.98409 0.17365,-23.34948 0.1746,-40.811982 l 0.002,-31.750001 16.33801,0.0449 c 8.98589,0.0247 17.29049,0.10741 18.45466,0.18383 11.237283,0.7376 20.192503,8.41161 22.411493,19.205101 2.48473,12.08613 -2.77438,23.937082 -12.88649,29.038632 -1.01865,0.5139 -1.896663,0.97491 -1.951143,1.02446 -0.0545,0.0495 1.213243,2.56567 2.817163,5.59138 1.60392,3.02571 4.37177,8.29926 6.15078,11.719 1.77901,3.41974 4.18102,8.02997 5.33779,10.24496 l 2.10321,4.02724 -7.96817,0.0738 -7.968183,0.0738 -2.07028,-3.96875 c -1.13866,-2.18281 -4.3004,-8.255 -7.0261,-13.49375 -2.7257,-5.23875 -5.24666,-10.03101 -5.60212,-10.64948 l -0.6463,-1.12448 h -5.94197 -5.94197 v 14.81667 14.81666 h -7.97976 -7.9798 z m 34.83671,-34.71204 c 10.991893,-3.54839 10.827373,-19.823442 -0.23208,-22.958222 -1.48144,-0.41991 -3.07125,-0.52157 -10.28511,-0.65766 l -8.53281,-0.16098 v 12.23605 12.236082 l 8.79739,-0.11276 c 7.49328,-0.096 9.01312,-0.18239 10.25261,-0.58251 z"
       id="path1-4"
       sodipodi:nodetypes="ccsssssscssssccccscsscccccscsscssscccssscccccccccssccccc" /><text
       xml:space="preserve"
       style="font-weight:900;font-size:30.931px;line-height:1.5;font-family:'Arial Black';-inkscape-font-specification:'Arial Black,  Heavy';font-variation-settings:normal;text-align:center;text-decoration-color:#000000;letter-spacing:0.105833px;writing-mode:lr-tb;direction:ltr;text-anchor:middle;display:inline;opacity:1;vector-effect:none;fill:#e6372e;fill-opacity:1;stroke-width:1.21776;stroke-linecap:butt;stroke-linejoin:miter;stroke-miterlimit:4;stroke-dasharray:none;stroke-dashoffset:0;stroke-opacity:1;-inkscape-stroke:none;paint-order:stroke markers fill"
       x="54.625126"
       y="179.63095"
       id="text1"><tspan
         sodipodi:role="line"
         id="tspan1"
         style="font-style:normal;font-variant:normal;font-weight:bold;font-stretch:normal;font-family:'Cera Pro';-inkscape-font-specification:'Cera Pro Bold';text-align:start;letter-spacing:0.105833px;text-anchor:start;stroke-width:1.21776"
         x="54.625126"
         y="179.63095">MEDIA</tspan></text><circle
       style="display:inline;vector-effect:none;fill:#e6372e;fill-opacity:1;stroke-width:1;stroke-linecap:butt;stroke-linejoin:miter;stroke-miterlimit:4;stroke-dasharray:none;stroke-dashoffset:0;stroke-opacity:1;-inkscape-stroke:none;paint-order:stroke markers fill"
       id="path2-1"
       cx="160.06798"
       cy="168.32352"
       r="11.2436" /></g></svg>
